<?xml version="1.0" standalone="no"?>
<!DOCTYPE svg PUBLIC "-//W3C//DTD SVG 20010904//EN"
 "http://www.w3.org/TR/2001/REC-SVG-20010904/DTD/svg10.dtd">
<svg version="1.0" xmlns="http://www.w3.org/2000/svg"
 width="512.000000pt" height="512.000000pt" viewBox="0 0 512.000000 512.000000"
 preserveAspectRatio="xMidYMid meet">
<metadata>
Created by potrace 1.14, written by Peter Selinger 2001-2017
</metadata>
<g transform="translate(0.000000,512.000000) scale(0.100000,-0.100000)"
fill="#000000" stroke="none">
<path d="M680 2560 l0 -1120 225 0 225 0 0 225 0 225 252 -2 252 -3 95 -222
96 -223 237 0 237 0 -39 93 c-21 50 -77 182 -124 291 l-84 199 56 42 c345 255
458 725 268 1110 -141 283 -405 465 -721 495 -61 5 -305 10 -542 10 l-433 0 0
-1120z m1083 628 c182 -87 280 -266 256 -469 -15 -125 -115 -271 -228 -333
-90 -49 -144 -56 -413 -56 l-248 0 0 451 0 450 278 -3 277 -3 78 -37z"/>
<path d="M2660 3290 c0 -436 5 -483 65 -623 50 -117 92 -181 177 -272 110
-117 224 -190 376 -239 l52 -18 0 -349 0 -349 220 0 220 0 0 349 0 348 88 32
c116 42 209 99 300 185 92 87 151 168 201 278 74 159 75 164 79 631 l3 417
-220 0 -221 0 0 -363 c0 -393 -4 -432 -56 -528 -40 -72 -119 -145 -203 -187
-73 -36 -78 -37 -190 -37 -110 0 -120 2 -184 32 -80 38 -166 116 -207 188 -56
98 -60 133 -60 532 l0 363 -220 0 -220 0 0 -390z"/>
</g>
</svg>
